<svg xmlns="http://www.w3.org/2000/svg" viewBox="0 0 144 53.69"><title>mgc-asb-logo</title><path d="M60.89,51.19l.88,2.5h.89l-2.56-7.14h-1l-2.54,7.14h.84l.88-2.5Zm-.25-.68H58.47l.65-1.88.25-.74.2-.64c.14.51.25.84.43,1.38l.64,1.88Zm5.36,3a5.91,5.91,0,0,0,1.81.32c1.44,0,2.36-.78,2.36-2a1.86,1.86,0,0,0-.57-1.38,4.34,4.34,0,0,0-1.43-.8c-1-.43-1.37-.76-1.37-1.36s.56-1.09,1.35-1.09a3.47,3.47,0,0,1,1.53.38l.17-.74a5.22,5.22,0,0,0-1.68-.32c-1.37,0-2.24.75-2.24,1.93a1.56,1.56,0,0,0,.55,1.25,4.64,4.64,0,0,0,1.37.75A3.94,3.94,0,0,1,69,51a1.11,1.11,0,0,1,.32.83,1.28,1.28,0,0,1-1.45,1.27,5,5,0,0,1-1.74-.36l-.1.72Zm5.63.22h.78V48.46h-.78v5.23ZM72,46a.56.56,0,1,0,.56.56A.54.54,0,0,0,72,46Zm6.23,5.24A4.31,4.31,0,0,0,78,49.5a1.87,1.87,0,0,0-1.87-1.14c-1.41,0-2.28,1-2.28,2.72a2.4,2.4,0,0,0,2.5,2.71,3.15,3.15,0,0,0,1.74-.52l-.3-.61a2.41,2.41,0,0,1-1.43.49A1.57,1.57,0,0,1,75,52.59a2.49,2.49,0,0,1-.4-1.31Zm-3.59-.63c0-1,.57-1.67,1.41-1.67s1.31.59,1.34,1.67Zm5,3h.78V50A2.07,2.07,0,0,1,82,49a.78.78,0,0,1,.78.55,2.94,2.94,0,0,1,.11,1v3.13h.78V50a2,2,0,0,1,1.51-1,.79.79,0,0,1,.83.56,4,4,0,0,1,.1,1.11v3h.78v-3a3.67,3.67,0,0,0-.21-1.58,1.34,1.34,0,0,0-1.29-.73,2.29,2.29,0,0,0-1.83,1,1.3,1.3,0,0,0-1.37-1,2.3,2.3,0,0,0-1.76.93l0-.83h-.77c0,.35,0,.83,0,1.7v3.53Zm13-2.4a4.31,4.31,0,0,0-.29-1.78,1.86,1.86,0,0,0-1.87-1.14c-1.41,0-2.28,1-2.28,2.72a2.4,2.4,0,0,0,2.5,2.71,3.15,3.15,0,0,0,1.74-.52l-.3-.61a2.41,2.41,0,0,1-1.43.49,1.57,1.57,0,0,1-1.28-.57,2.49,2.49,0,0,1-.4-1.31Zm-3.59-.63c0-1,.57-1.67,1.41-1.67s1.31.59,1.34,1.67Zm5,3h.78V50a2.23,2.23,0,0,1,1.66-1,.86.86,0,0,1,.9.56,3.47,3.47,0,0,1,.11,1.11v3h.78v-3a3.6,3.6,0,0,0-.22-1.58,1.42,1.42,0,0,0-1.36-.73,2.45,2.45,0,0,0-1.9.94l0-.84H94c0,.35,0,.83,0,1.7v3.53Zm5.6-.26a3.32,3.32,0,0,0,1.5.36A1.62,1.62,0,0,0,103,52.22c0-.74-.31-1.07-1.42-1.53-.87-.35-1.06-.53-1.06-.94s.36-.77,1-.77a2.05,2.05,0,0,1,1.19.38l.24-.62a3,3,0,0,0-1.5-.39,1.52,1.52,0,0,0-1.71,1.46,1.26,1.26,0,0,0,.4.95,2.73,2.73,0,0,0,1,.57c.89.35,1,.48,1,.94a.91.91,0,0,1-1,.89,2.92,2.92,0,0,1-1.27-.35l-.24.62Zm7.34.26h1.41a3.49,3.49,0,0,0,1.87-.27,1.72,1.72,0,0,0,.91-1.63A1.62,1.62,0,0,0,109.52,50,1.49,1.49,0,0,0,111,48.4a1.61,1.61,0,0,0-.95-1.61,4.71,4.71,0,0,0-1.93-.24H107v7.14Zm.83-3.94V47.22h.37a2.76,2.76,0,0,1,1.42.22,1.34,1.34,0,0,1,0,2.1,3.25,3.25,0,0,1-1.39.21Zm0,3.27V50.39h.37a3.85,3.85,0,0,1,1.43.18,1.12,1.12,0,0,1,.68,1.13,1.15,1.15,0,0,1-.55,1.11,3.22,3.22,0,0,1-1.57.21Zm9-4.56H116v3.72a2.18,2.18,0,0,1-1.63,1,.83.83,0,0,1-.87-.56,3.48,3.48,0,0,1-.11-1.11v-3h-.78v3a3.6,3.6,0,0,0,.22,1.58,1.37,1.37,0,0,0,1.33.73,2.44,2.44,0,0,0,1.87-.94l0,.84h.77c0-.35,0-.83,0-1.7V48.46Zm1.4,5a3.32,3.32,0,0,0,1.49.36,1.62,1.62,0,0,0,1.84-1.57c0-.74-.31-1.07-1.42-1.53-.87-.35-1.06-.53-1.06-.94s.36-.77,1-.77a2.05,2.05,0,0,1,1.19.38l.24-.62a3,3,0,0,0-1.5-.39,1.52,1.52,0,0,0-1.71,1.46,1.26,1.26,0,0,0,.4.95,2.73,2.73,0,0,0,1,.57c.89.35,1,.48,1,.94a.91.91,0,0,1-1,.89,2.92,2.92,0,0,1-1.27-.35l-.24.62Zm4.73.26h.78V48.46h-.78v5.23Zm.39-7.64a.56.56,0,1,0,.56.56.54.54,0,0,0-.56-.56Zm2.19,7.64h.78V50a2.23,2.23,0,0,1,1.66-1,.86.86,0,0,1,.9.56,3.47,3.47,0,0,1,.11,1.11v3h.78v-3a3.6,3.6,0,0,0-.22-1.58,1.42,1.42,0,0,0-1.36-.73,2.45,2.45,0,0,0-1.9.94l0-.84h-.77c0,.35,0,.83,0,1.7v3.53Zm10-2.4a4.31,4.31,0,0,0-.29-1.78,1.87,1.87,0,0,0-1.87-1.14c-1.41,0-2.28,1-2.28,2.72a2.4,2.4,0,0,0,2.5,2.71,3.15,3.15,0,0,0,1.74-.52l-.3-.61a2.41,2.41,0,0,1-1.43.49,1.56,1.56,0,0,1-1.28-.57,2.48,2.48,0,0,1-.4-1.31Zm-3.59-.63c0-1,.57-1.67,1.41-1.67s1.31.59,1.34,1.67Zm4.58,2.77a3.32,3.32,0,0,0,1.49.36,1.62,1.62,0,0,0,1.84-1.57c0-.74-.31-1.07-1.42-1.53-.87-.35-1.06-.53-1.06-.94s.36-.77,1-.77a2.05,2.05,0,0,1,1.19.38l.24-.62a3,3,0,0,0-1.49-.39,1.52,1.52,0,0,0-1.71,1.46,1.26,1.26,0,0,0,.4.95,2.73,2.73,0,0,0,1,.57c.89.35,1,.48,1,.94a.91.91,0,0,1-1,.89,2.92,2.92,0,0,1-1.27-.35l-.24.62Zm4.19,0a3.32,3.32,0,0,0,1.5.36A1.62,1.62,0,0,0,144,52.22c0-.74-.31-1.07-1.42-1.53-.87-.35-1.06-.53-1.06-.94s.36-.77,1-.77a2.05,2.05,0,0,1,1.19.38l.24-.62a3,3,0,0,0-1.5-.39,1.52,1.52,0,0,0-1.71,1.46,1.26,1.26,0,0,0,.4.95,2.73,2.73,0,0,0,1,.57c.89.35,1,.48,1,.94a.91.91,0,0,1-1,.89,2.92,2.92,0,0,1-1.27-.35l-.24.62Z" fill="#231f20"/><path d="M26.77,21.69V0h8.54L41.3,16,46.89,0h8.24V21.69h-5.3V8L44.31,21.69H37.52L32.21,8V21.69H26.77m79.4-11.95h-5.23a7.55,7.55,0,0,0-.69,4.63c.36,3.54,3.71,6.55,7,7.48a9.56,9.56,0,0,0,9.5-3,9,9,0,0,0,1.59-9.66C117,6,114,3.52,110.66,3.52H98.78V0H93.32V21.69h5.46V8h10.43a5.36,5.36,0,0,1,3.24,1.27,4.85,4.85,0,0,1,1.36,5.16,4.8,4.8,0,0,1-3.34,3,4.52,4.52,0,0,1-4-1.16,4.68,4.68,0,0,1-1.36-4.37,6.55,6.55,0,0,1,1.06-2.08M90.43,5a6.77,6.77,0,0,0-7.1-1.64,14,14,0,0,0-2.75,1.89,6.93,6.93,0,0,1-.33-1.7H75.34v15h5.07V10.71a2.71,2.71,0,0,1,1.46-2.28,3.14,3.14,0,0,1,3.28-.13c1.39.71,1.84,4,1.84,6.59v6.82h5v-11c0-2.05-.15-4.14-1.6-5.74m35-1.37h-5.56V21.69h5.69V11.07a2.86,2.86,0,0,1,1.26-2.55c1.69-.7,3.77-.43,5.79-.43l0-4.43c-2.42.2-5.4-.83-6.82,1.52L125.62,5a3.38,3.38,0,0,0-.2-1.42M72.94,7.33a8.91,8.91,0,0,0-10-4.24C60.13,3.62,57.55,6.3,56.65,9A10.33,10.33,0,0,0,58,18.42c2.45,3.14,6.42,4,10.23,3.31a9.16,9.16,0,0,0,4.17-2.05V15.8l-.1-.1a10.49,10.49,0,0,1-4.57,1.89,6.51,6.51,0,0,1-5.53-2.32.28.28,0,0,1,.1-.36l11.78,0,.2-.1a15.66,15.66,0,0,0-1.36-7.45Zm-6.16.23A3.89,3.89,0,0,1,68,8.85a3.37,3.37,0,0,1,.3,1.62l-.23.2H62.48c-.2,0-.43-.07-.46-.26a3,3,0,0,1,1.52-2.75,3.42,3.42,0,0,1,3.24-.1M20.38,39.34h5v-15H12.82v4.8h6.83c.33.13.23.59.2.83a7.17,7.17,0,0,1-4.43,4.87,7.72,7.72,0,0,1-7.15-1.09,7.06,7.06,0,0,1-3.08-7c.36-2.35,2.78-5.13,4.67-5.13H25.36V16.63H12.64a15,15,0,0,0-6,.79A10.79,10.79,0,0,0,0,26.59a12.42,12.42,0,0,0,6.49,12A12.74,12.74,0,0,0,20,37.41c.13,0,.2.2.23.33.1.53-.07,1.17.17,1.6M92,39.4v-12C92,25.2,89.27,23,87,22.62a7,7,0,0,0-6.32,2.18l-.1,0a45.86,45.86,0,0,1-.17-5.11h-5V39.4H80.4V29.73c0-1.51,2.3-2.75,3.72-2.52S87,28.37,87,29.5v9.9H92M37.56,27V22.74H34.15c-.79-.07-1.32.74-2,1a5.77,5.77,0,0,1-.2-1h-5.2l0,16.6H32V28.61c.63-2.48,3.66-1.36,5.54-1.59m55.77-4.28V39.4h5.46V22.74H93.32m32.17,4.52V22.74h-9.05c-1.61,0-3.66,2.09-4.19,3.68a5.4,5.4,0,0,0,1.49,5.73c2,1.92,4.9,1,7.61,1.22l.43.17a1,1,0,0,1,.3,1,1.46,1.46,0,0,1-.6.51H108.15a4.18,4.18,0,0,1-3.57-2,4.17,4.17,0,0,1,.13-3.9c1.29-2.38,4.22-1.89,6.6-2V23c-3.44,0-6.9-.26-9.25,2.18a8.3,8.3,0,0,0,5.39,14.33h14.73c1.77,0,3.47-1.59,4.17-3.21a5.5,5.5,0,0,0-.89-5.36c-1.75-2.32-4.7-1.59-7.38-1.72-.33-.13-.73-.2-.89-.56a1.09,1.09,0,0,1-.07-1,1,1,0,0,1,.7-.5h7.68m-87.65-.73a12.5,12.5,0,0,0-1,3.54,8.65,8.65,0,0,0,4.57,8.54c2.42,1.46,5.79,1.16,8.24-.07.3.2.27.5.33.8h5.16V22.74h-4.8c-.86-.1-.2,1.24-.73,1.47a10.56,10.56,0,0,0-3.44-1.29c-3.38-.46-6.69.45-8.36,3.61Zm9.55.23a4.12,4.12,0,0,1,2.42,1.46c.13,1.69,0,3.51.07,5.16a3.15,3.15,0,0,1-2.35,1.69,4.29,4.29,0,0,1-4.4-1.79,4.23,4.23,0,0,1,4.27-6.52m9.55-4V43.8h5.38V39.1l.1-.2c.33-.17.66.13,1,.2a8.73,8.73,0,0,0,9-2.08,8.84,8.84,0,0,0,2-9.1A8.33,8.33,0,0,0,66,22.65a12.55,12.55,0,0,0-3.51,1c-.33-.1-.3-.91-.3-.91ZM66,26.79a4.68,4.68,0,0,1,2.75,1.75,4.51,4.51,0,0,1,.53,3.81A4.13,4.13,0,0,1,66.35,35a4.4,4.4,0,0,1-3.84-.89l-.17-.33V28A4.09,4.09,0,0,1,66,26.79M127.18,25a2.41,2.41,0,1,0,2.41-2.37A2.38,2.38,0,0,0,127.18,25Zm2.41,2a2,2,0,1,1,1.92-2,1.92,1.92,0,0,1-1.92,2Zm-.46-.74V25.19h.44l.66,1.09h.42l-.71-1.1a.65.65,0,0,0,.65-.69c0-.49-.29-.71-.88-.71h-1v2.5Zm.45-1.41h-.45V24.1h.52c.26,0,.55.06.55.37s-.29.41-.61.41" fill="#a90533"/></svg>